<?xml version="1.0" encoding="utf-8"?>
<!-- Generator: Adobe Illustrator 21.0.0, SVG Export Plug-In . SVG Version: 6.00 Build 0)  -->
<svg version="1.1" id="图层_1" xmlns="http://www.w3.org/2000/svg" xmlns:xlink="http://www.w3.org/1999/xlink" x="0px" y="0px"
	 viewBox="0 0 1200 1200" style="enable-background:new 0 0 1200 1200;" xml:space="preserve">
<style type="text/css">
	.st0{fill:none;}
	.st1{fill:#FFFFFF;}
</style>
<g>
	<path class="st0" d="M759.6,843.7c-28.8,0-52.1,23.3-52.1,52.1s23.3,52.1,52.1,52.1c28.8,0,52.1-23.3,52.1-52.1
		S788.4,843.7,759.6,843.7z"/>
	<path class="st0" d="M492.5,304.2c0-28.8-23.3-52.1-52.1-52.1c-28.8,0-52.1,23.3-52.1,52.1c0,8.9,2.2,17.3,6.2,24.7
		c8.8,16.3,26,27.4,45.9,27.4c19.4,0,36.3-10.7,45.3-26.4C490,322.3,492.5,313.6,492.5,304.2z"/>
	<path class="st1" d="M759.6,791.6c-41,0-76.5,23.7-93.5,58.1H485.7V398.1c34.9-16.9,58.9-52.5,58.9-93.9
		c0-57.5-46.7-104.2-104.2-104.2s-104.2,46.7-104.2,104.2c0,41.1,23.8,76.6,58.3,93.6V941h271.2c16.8,34.9,52.6,59,93.9,59
		c57.5,0,104.2-46.7,104.2-104.2S817.1,791.6,759.6,791.6z M440.4,356.3c-19.9,0-37.1-11.1-45.9-27.4c-4-7.4-6.2-15.8-6.2-24.7
		c0-28.8,23.3-52.1,52.1-52.1c28.8,0,52.1,23.3,52.1,52.1c0,9.4-2.5,18.1-6.8,25.7C476.7,345.6,459.8,356.3,440.4,356.3z
		 M759.6,947.9c-28.8,0-52.1-23.3-52.1-52.1s23.3-52.1,52.1-52.1s52.1,23.3,52.1,52.1S788.4,947.9,759.6,947.9z"/>
</g>
</svg>
