<?xml version="1.0" encoding="utf-8"?>
<!-- Generator: Adobe Illustrator 21.0.0, SVG Export Plug-In . SVG Version: 6.00 Build 0)  -->
<svg version="1.1" id="图层_1" xmlns="http://www.w3.org/2000/svg"  x="0px" y="0px"
	 viewBox="0 0 890 360" style="enable-background:new 0 0 890 360;" xml:space="preserve">
<style type="text/css">
	.st0{fill:none;}
	.st1{fill:#666666;}
</style>
<g>
	<path class="st0" d="M650.2,105.4c-2.7-4.1-6.5-7.2-11.4-9.2s-11.3-3-19.3-3h-22.7v95.2h0.1h24.9c7.7,0,13.9-1.1,18.4-3.2
		c4.6-2.1,8.1-5.2,10.5-9.2s4.1-8.9,4.9-14.8c0.9-5.9,1.3-12.7,1.3-20.4c0-7.7-0.4-14.5-1.3-20.4C654.7,114.5,653,109.5,650.2,105.4
		z"/>
	<path class="st0" d="M51,77c9.4,0,17.5-5.2,21.8-12.8c2-3.6,3.2-7.8,3.2-12.2c0-13.8-11.2-25-25-25S26,38.2,26,52
		c0,4.3,1.1,8.3,3,11.9C33.2,71.7,41.5,77,51,77z"/>
	<path class="st0" d="M279.3,100.7c-5.9-5-12.8-7.5-20.8-7.5s-14.9,2.5-20.8,7.5c-5.9,5-8.8,12.8-8.8,23.4v161.2
		c0,10.6,2.9,18.4,8.8,23.4c5.9,5,12.8,7.5,20.8,7.5s14.9-2.5,20.8-7.5c5.9-5,8.8-12.8,8.8-23.4V124.1
		C288.1,113.5,285.2,105.7,279.3,100.7z"/>
	<path class="st0" d="M999-185.5c-6.9,0-13.2,2.8-17.7,7.3s-7.3,10.8-7.3,17.7c0,13.8,11.2,25,25,25c6.9,0,13.2-2.8,17.7-7.3
		s7.3-10.8,7.3-17.7C1024-174.3,1012.8-185.5,999-185.5z"/>
	<polygon class="st0" points="801.9,139.9 780.5,250.6 780.5,250.6 824.3,250.6 802.8,139.9 	"/>
	<path class="st1" d="M29,357.4h130.4v-43.8H72.8V97C89.5,88.9,101,71.8,101,52c0-27.6-22.4-50-50-50C23.4,2,1,24.4,1,52
		c0,19.7,11.4,36.8,28,44.9V357.4z M26,52c0-13.8,11.2-25,25-25s25,11.2,25,25c0,4.4-1.2,8.6-3.2,12.2C68.5,71.8,60.4,77,51,77
		c-9.5,0-17.8-5.3-22-13.1C27.1,60.3,26,56.3,26,52z"/>
	<path class="st1" d="M308.4,68.1c-7-6.1-14.9-10.8-23.6-13.9c-8.7-3.1-17.5-4.7-26.4-4.7c-8.9,0-17.7,1.6-26.4,4.7
		c-8.7,3.1-16.6,7.8-23.6,13.9c-7,6.2-12.6,14-16.9,23.4c-4.3,9.4-6.4,20.3-6.4,32.6v161.3c0,12.6,2.1,23.5,6.4,32.8
		c4.2,9.3,9.9,17.1,16.9,23.2c7,6.1,14.9,10.8,23.6,13.9c8.7,3.1,17.5,4.7,26.4,4.7c8.9,0,17.7-1.6,26.4-4.7
		c8.7-3.1,16.6-7.7,23.6-13.9s12.6-13.9,16.9-23.2s6.4-20.2,6.4-32.8V124.1c0-12.3-2.1-23.2-6.4-32.6
		C321.1,82,315.4,74.3,308.4,68.1z M288.1,285.3c0,10.6-2.9,18.4-8.8,23.4c-5.9,5-12.8,7.5-20.8,7.5s-14.9-2.5-20.8-7.5
		c-5.9-5-8.8-12.8-8.8-23.4V124.1c0-10.6,2.9-18.4,8.8-23.4c5.9-5,12.8-7.5,20.8-7.5s14.9,2.5,20.8,7.5c5.9,5,8.8,12.8,8.8,23.4
		V285.3z"/>
	<polygon class="st1" points="463.2,174.2 522.8,52 479,52 415.1,191.4 414.2,191.4 414.2,52 370.5,52 370.5,357.5 414.3,357.5
		414.3,266.1 437.9,221.9 487.7,357.4 534,357.4 	"/>
	<path class="st1" d="M784.3,52L716,357.4h43.8l12.9-65.6h59.6l12.9,65.6H889L820.8,52H784.3z M780.5,250.6L780.5,250.6l21.4-110.7
		h0.9l21.5,110.7H780.5z"/>
	<path class="st1" d="M662.8,218c14-7.8,23.8-18,29.4-30.7c5.6-12.7,8.4-28,8.4-45.7c0-59.7-25.7-89.6-77.2-89.6h-70.3H553v305.4
		h43.8V227H623l40.7,130.4h0.1l46.2,0L662.8,218z M655.6,161.2c-0.8,5.9-2.5,10.8-4.9,14.8s-5.9,7.1-10.5,9.2
		c-4.5,2.1-10.7,3.2-18.4,3.2h-24.9h-0.1V93.2h22.7c8,0,14.4,1,19.3,3s8.7,5.1,11.4,9.2c2.8,4.1,4.5,9.1,5.4,15
		c0.9,5.9,1.3,12.7,1.3,20.4C656.9,148.5,656.5,155.3,655.6,161.2z"/>
</g>
</svg>
