<?xml version="1.0" encoding="utf-8"?>
<!-- Generator: Adobe Illustrator 21.0.0, SVG Export Plug-In . SVG Version: 6.00 Build 0)  -->
<svg version="1.1" id="图层_1" xmlns="http://www.w3.org/2000/svg" xmlns:xlink="http://www.w3.org/1999/xlink" x="0px" y="0px"
	 viewBox="0 0 1200 1200" style="enable-background:new 0 0 1200 1200;" xml:space="preserve">
<style type="text/css">
	.st0{fill:#FFFFFF;}
</style>
<g id="Logo">
	<g>
		<path class="st0" d="M759.6,791.6c-41,0-76.5,23.7-93.5,58.1H485.7V398.1c34.9-16.9,58.9-52.5,58.9-93.9
			c0-57.5-46.7-104.2-104.2-104.2s-104.2,46.7-104.2,104.2c0,41.1,23.8,76.6,58.3,93.6V941h271.2c16.8,34.9,52.6,59,93.9,59
			c57.5,0,104.2-46.7,104.2-104.2S817.1,791.6,759.6,791.6z M388.3,304.2c0-28.8,23.3-52.1,52.1-52.1s52.1,23.3,52.1,52.1
			c0,9.4-2.5,18.1-6.8,25.7c-9,15.7-25.9,26.4-45.3,26.4c-19.9,0-37.1-11.1-45.9-27.4C390.5,321.5,388.3,313.1,388.3,304.2z
			 M759.6,947.9c-28.8,0-52.1-23.3-52.1-52.1s23.3-52.1,52.1-52.1s52.1,23.3,52.1,52.1S788.4,947.9,759.6,947.9z"/>
		<path class="st0" d="M1140,0h-60H0v1200h1200V120V60V0H1140z M1140,1140H60V60h1020l60,60V1140z M1157.7,77.7
			c-4.5,4.5-10.8,7.3-17.7,7.3c-13.8,0-25-11.2-25-25c0-6.9,2.8-13.2,7.3-17.7s10.8-7.3,17.7-7.3c13.8,0,25,11.2,25,25
			C1165,66.9,1162.2,73.2,1157.7,77.7z"/>
	</g>
</g>
</svg>
