<?xml version="1.0" encoding="utf-8"?>
<!-- Generator: Adobe Illustrator 21.0.0, SVG Export Plug-In . SVG Version: 6.00 Build 0)  -->
<svg version="1.1" xmlns="http://www.w3.org/2000/svg"  x="0px" y="0px"
	 viewBox="0 0 1200 1200" style="enable-background:new 0 0 1200 1200;" xml:space="preserve">
<style type="text/css">
	.st0{fill:none;}
	.st1{fill:#FFFFFF;}
</style>
<g id="底色">
	<rect y="0" class="st0" width="1200" height="1200"/>
</g>
<g id="Logo">
	<g>
		<path class="st1" d="M291.4,660.9c-6-6.1-13.2-11.1-21.6-14.8c-8.4-3.7-17.7-5.6-27.8-5.6c-11.7,0-22,2.1-30.8,6.2
			s-16.1,9.7-21.8,16.6c-5.7,6.9-10.1,15.2-13,24.8c-2.9,9.6-4.4,19.7-4.4,30.4c0,17.9,3,32.7,9,44.6c6,11.9,17.8,21.4,35.4,28.6
			l29.2,12c5.1,2.1,9.1,4.1,12.2,6c3.1,1.9,5.5,4.3,7.2,7.2c1.7,2.9,2.9,6.8,3.4,11.6c0.5,4.8,0.8,10.9,0.8,18.4
			c0,6.4-0.3,12.3-0.8,17.6c-0.5,5.3-1.8,9.8-3.8,13.4c-2,3.6-4.9,6.4-8.8,8.4c-3.9,2-9.3,3-16.2,3c-10.4,0-17.8-3-22.2-9
			s-6.6-12.7-6.6-20.2v-12.8H170v15.2c0,9.6,1.8,18.5,5.4,26.8c3.6,8.3,8.5,15.4,14.6,21.4c6.1,6,13.5,10.7,22,14.2
			s17.7,5.2,27.6,5.2c13.1,0,24.1-2.1,33.2-6.4c9.1-4.3,16.3-10.1,21.8-17.4c5.5-7.3,9.4-16.1,11.8-26.4c2.4-10.3,3.6-21.4,3.6-33.4
			c0-10.4-0.5-19.7-1.6-27.8c-1.1-8.1-3.1-15.3-6.2-21.6c-3.1-6.3-7.4-11.7-13-16.4c-5.6-4.7-12.9-8.7-22-12.2L236,756.1
			c-5.3-2.1-9.5-4.3-12.6-6.4c-3.1-2.1-5.4-4.6-7-7.4c-1.6-2.8-2.6-6.1-3-10s-0.6-8.6-0.6-14.2c0-4.8,0.4-9.4,1.2-13.8
			c0.8-4.4,2.2-8.3,4.2-11.6s4.8-6.1,8.4-8.2c3.6-2.1,8.2-3.2,13.8-3.2c10.4,0,17.8,3.4,22.2,10.2c4.4,6.8,6.6,14.9,6.6,24.2v9.2
			H310h0v-20c0-8-1.6-15.8-4.8-23.4S297.4,667,291.4,660.9z"/>
		<polygon class="st1" points="320,681.3 367.2,681.3 367.2,927.7 408,927.7 408,681.3 455.2,681.3 455.2,642.9 320,642.9 		"/>
		<path class="st1" d="M564.4,859.7c0,10.1-2.4,17.6-7.2,22.4s-10.8,7.2-18,7.2s-13.2-2.4-18-7.2c-4.8-4.8-7.2-12.3-7.2-22.4V642.9
			h-40.8v220.8c0,9.3,1.7,18,5.2,26s8.2,15,14.2,21s13,10.7,21,14.2s16.5,5.2,25.6,5.2s17.6-1.7,25.6-5.2s15-8.2,21-14.2
			s10.7-13,14.2-21s5.2-16.7,5.2-26V642.9h-40.8V859.7z"/>
		<path class="st1" d="M704,642.9h-60.4v284.8h56.8c24.3,0,42.9-6.3,55.8-19s19.4-32.3,19.4-59V716.5c0-23.2-6.1-41.3-18.4-54.2
			S727.2,642.9,704,642.9z M734.8,853.7c0,12.3-2.4,21.3-7.2,27c-4.8,5.7-12.9,8.6-24.4,8.6h-18.8v-208h18.8c12,0,20.3,3.1,24.8,9.2
			s6.8,14.8,6.8,26V853.7z"/>
		<path class="st1" d="M1008.2,657.9c-6.5-5.7-13.9-10.1-22-13s-16.3-4.4-24.6-4.4s-16.5,1.5-24.6,4.4s-15.5,7.3-22,13
			s-11.8,13-15.8,21.8s-6,18.9-6,30.4h0v150.4c0,11.7,2,21.9,6,30.6c4,8.7,9.3,15.9,15.8,21.6s13.9,10.1,22,13s16.3,4.4,24.6,4.4
			s16.5-1.5,24.6-4.4s15.5-7.3,22-13c6.5-5.7,11.8-12.9,15.8-21.6c4-8.7,6-18.9,6-30.6V710.1c0-11.5-2-21.6-6-30.4
			C1020,670.9,1014.7,663.6,1008.2,657.9z M989.2,860.5c0,9.9-2.7,17.1-8.2,21.8s-11.9,7-19.4,7s-13.9-2.3-19.4-7
			s-8.2-11.9-8.2-21.8V710.1c0-9.9,2.7-17.1,8.2-21.8s11.9-7,19.4-7s13.9,2.3,19.4,7s8.2,11.9,8.2,21.8V860.5z"/>
		<path class="st1" d="M300.4,577.9v-43.8h-86.6V317.5c16.7-8.1,28.2-25.2,28.2-45c0-27.6-22.4-50-50-50s-50,22.4-50,50
			c0,19.7,11.4,36.8,28,44.9v260.5H300.4z M167,272.5c0-13.8,11.2-25,25-25s25,11.2,25,25c0,4.4-1.2,8.6-3.2,12.2
			c-4.3,7.6-12.4,12.8-21.8,12.8c-9.5,0-17.8-5.3-22-13.1C168.1,280.8,167,276.8,167,272.5z"/>
		<path class="st1" d="M449.4,288.6c-7-6.1-14.9-10.8-23.6-13.9c-8.7-3.1-17.5-4.7-26.4-4.7c-8.9,0-17.7,1.6-26.4,4.7
			c-8.7,3.1-16.6,7.8-23.6,13.9c-7,6.2-12.6,14-16.9,23.4c-4.3,9.4-6.4,20.3-6.4,32.6v161.3c0,12.6,2.1,23.5,6.4,32.8
			c4.2,9.3,9.9,17.1,16.9,23.2c7,6.1,14.9,10.8,23.6,13.9c8.7,3.1,17.5,4.7,26.4,4.7c8.9,0,17.7-1.6,26.4-4.7
			c8.7-3.1,16.6-7.7,23.6-13.9s12.6-13.9,16.9-23.2s6.4-20.2,6.4-32.8V344.6c0-12.3-2.1-23.2-6.4-32.6
			C462.1,302.5,456.4,294.8,449.4,288.6z M429.1,505.8c0,10.6-2.9,18.4-8.8,23.4c-5.9,5-12.8,7.5-20.8,7.5s-14.9-2.5-20.8-7.5
			c-5.9-5-8.8-12.8-8.8-23.4V344.6c0-10.6,2.9-18.4,8.8-23.4c5.9-5,12.8-7.5,20.8-7.5s14.9,2.5,20.8,7.5c5.9,5,8.8,12.8,8.8,23.4
			V505.8z"/>
		<polygon class="st1" points="604.2,394.7 663.8,272.5 620,272.5 556.1,411.9 555.2,411.9 555.2,272.5 511.5,272.5 511.5,578
			555.3,578 555.3,486.6 578.9,442.4 628.7,577.9 675,577.9 		"/>
		<path class="st1" d="M925.3,272.5L857,577.9h43.8l12.9-65.6h59.6l12.9,65.6h43.8l-68.2-305.4H925.3z M921.5,471.1l21.4-110.7h0.9
			l21.5,110.7H921.5z"/>
		<path class="st1" d="M856,882.1v-223c0.5-4.2,0.5-9.5,0-16.2c-4.9-65-4.9-65-4.9-65H851l-47.2-139.4c14-7.8,23.8-18,29.4-30.7
			c5.6-12.7,8.4-28,8.4-45.7c0-59.7-25.7-89.6-77.2-89.6h-70.3H694v305.4h43.8V447.5H764l40.7,130.4h0.1c10.4,65,10.4,65,10.4,65
			v239.2c-17.4,7.8-29.6,25.3-29.6,45.6c0,27.6,22.4,50,50,50s50-22.4,50-50C885.6,907.4,873.4,889.9,856,882.1z M796.6,381.7
			c-0.8,5.9-2.5,10.8-4.9,14.8s-5.9,7.1-10.5,9.2c-4.5,2.1-10.7,3.2-18.4,3.2h-24.9h-0.1v-95.2h22.7c8,0,14.4,1,19.3,3
			s8.7,5.1,11.4,9.2c2.8,4.1,4.5,9.1,5.4,15c0.9,5.9,1.3,12.7,1.3,20.4C797.9,369,797.5,375.8,796.6,381.7z M835.6,952.7
			c-13.8,0-25-11.2-25-25c0-5.4,1.7-10.4,4.6-14.4c4.5-6.4,12-10.6,20.4-10.6s15.9,4.2,20.4,10.6c2.9,4.1,4.6,9.1,4.6,14.4
			C860.6,941.5,849.4,952.7,835.6,952.7z"/>
		<path class="st1" d="M1140,0h-60H0v1200h1200V120V60V0H1140z M1140,1140H60V60h1020l60,60V1140z M1157.7,77.7
			c-4.5,4.5-10.8,7.3-17.7,7.3c-13.8,0-25-11.2-25-25c0-6.9,2.8-13.2,7.3-17.7c4.5-4.5,10.8-7.3,17.7-7.3c13.8,0,25,11.2,25,25
			C1165,66.9,1162.2,73.2,1157.7,77.7z"/>
	</g>
</g>
</svg>
