<?xml version="1.0" standalone="no"?>
<!DOCTYPE svg PUBLIC "-//W3C//DTD SVG 20010904//EN"
 "http://www.w3.org/TR/2001/REC-SVG-20010904/DTD/svg10.dtd">
<svg version="1.0" xmlns="http://www.w3.org/2000/svg"
 width="700.000000pt" height="700.000000pt" viewBox="0 0 700.000000 700.000000"
 preserveAspectRatio="xMidYMid meet">
<metadata>
Created by potrace 1.11, written by Peter Selinger 2001-2013
</metadata>
<g transform="translate(0.000000,700.000000) scale(0.100000,-0.100000)"
fill="#000000" stroke="none">
<path d="M2558 5835 c-2 -1 -30 -5 -63 -8 -232 -22 -444 -204 -510 -437 -73
-260 42 -548 278 -689 l37 -23 0 -306 c0 -169 0 -882 0 -1584 l0 -1278 793 0
792 0 29 -51 c37 -66 115 -146 188 -193 326 -207 746 -74 891 284 34 83 46
156 42 250 -4 121 -32 205 -102 312 -72 110 -163 182 -301 235 -59 24 -82 27
-192 27 -127 1 -175 -8 -270 -52 -47 -21 -116 -69 -161 -112 -39 -37 -119
-143 -119 -158 0 -4 -238 -8 -528 -8 l-529 0 1 1315 1 1315 63 42 c34 24 77
58 95 76 191 191 236 475 113 713 -90 175 -275 304 -461 321 -27 3 -58 6 -67
8 -9 2 -18 3 -20 1z m126 -329 c107 -45 176 -143 184 -260 17 -276 -302 -426
-509 -239 -113 103 -119 313 -11 426 83 87 228 118 336 73z m1831 -3441 c64
-16 123 -59 165 -120 106 -155 44 -370 -129 -448 -64 -29 -178 -29 -243 1 -58
27 -119 85 -150 143 -19 37 -23 59 -23 134 0 106 18 150 92 221 70 68 183 95
288 69z"/>
</g>
</svg>
